<?xml version="1.0" standalone="no"?>
<!DOCTYPE svg PUBLIC "-//W3C//DTD SVG 20010904//EN"
 "http://www.w3.org/TR/2001/REC-SVG-20010904/DTD/svg10.dtd">
<svg version="1.0" xmlns="http://www.w3.org/2000/svg"
 width="250.000000pt" height="241.000000pt" viewBox="0 0 250.000000 241.000000"
 preserveAspectRatio="xMidYMid meet">

<g transform="translate(0.000000,241.000000) scale(0.100000,-0.100000)"
fill="#fff" stroke="#fff">
<path d="M1082 2314 c-295 -64 -528 -300 -588 -593 -22 -112 -15 -276 16 -376
64 -205 203 -369 394 -464 120 -61 188 -76 341 -75 148 0 218 15 330 70 258
127 419 372 432 659 10 210 -49 372 -201 549 -163 190 -467 287 -724 230z
m348 -78 c122 -34 276 -133 350 -227 77 -97 150 -262 150 -338 l0 -21 -462 2
-463 3 -60 108 c-58 104 -83 129 -108 109 -7 -6 -39 -58 -72 -116 l-60 -106
-76 0 -77 0 14 66 c28 134 119 285 228 377 92 79 219 138 346 161 47 9 235 -3
290 -18z m-515 -564 l51 -87 488 -3 489 -2 -7 -76 c-26 -287 -224 -523 -512
-610 -43 -14 -92 -18 -184 -18 -110 0 -134 3 -205 28 -162 55 -303 166 -384
301 -50 83 -91 206 -98 297 l-6 78 95 0 c109 0 102 -5 169 112 24 42 46 74 48
72 3 -2 28 -44 56 -92z"/>
<path d="M1553 1465 c-34 -14 -43 -31 -43 -80 0 -36 37 -75 71 -75 63 0 103
64 75 118 -20 39 -62 54 -103 37z"/>
<path d="M845 1444 c-39 -43 -26 -103 26 -125 34 -14 84 2 99 32 45 83 -61
162 -125 93z"/>
<path d="M870 1165 c-21 -25 -6 -46 59 -86 214 -129 434 -126 646 8 52 33 64
58 41 82 -16 15 -20 14 -54 -7 -127 -79 -259 -119 -350 -107 -102 14 -220 58
-281 106 -29 23 -45 24 -61 4z"/>
<path d="M150 478 c-88 -61 -94 -191 -11 -261 42 -35 115 -38 155 -6 l26 20 0
-20 c0 -12 6 -21 15 -21 12 0 15 15 15 75 l0 75 -51 0 c-57 0 -66 -23 -11 -28
26 -3 32 -8 32 -26 0 -51 -88 -91 -140 -64 -38 20 -70 75 -70 120 0 107 103
166 179 102 33 -28 58 -25 41 5 -13 25 -71 51 -113 51 -19 0 -49 -10 -67 -22z"/>
<path d="M670 350 l0 -150 25 -10 c26 -10 55 -4 55 10 0 5 -10 10 -22 12 -22
3 -23 6 -26 146 -2 117 -5 142 -17 142 -13 0 -15 -25 -15 -150z"/>
<path d="M960 433 l0 -66 -22 21 c-91 84 -211 -35 -152 -149 28 -55 111 -72
155 -33 15 13 17 13 22 -1 4 -8 14 -15 23 -15 11 0 14 5 10 16 -3 9 -6 78 -6
155 0 117 -2 139 -15 139 -12 0 -15 -14 -15 -67z m-26 -64 c22 -17 26 -28 26
-69 0 -41 -4 -52 -26 -69 -39 -31 -77 -27 -108 10 -29 35 -33 67 -11 109 23
45 75 54 119 19z"/>
<path d="M1690 345 l0 -155 90 0 c83 0 93 2 115 25 33 32 33 79 2 107 l-24 21
21 37 c17 32 18 41 7 67 -17 41 -48 53 -136 53 l-75 0 0 -155z m176 100 c34
-52 -12 -95 -102 -95 l-44 0 0 60 0 60 65 0 c58 0 66 -3 81 -25z m6 -132 c21
-19 23 -52 4 -78 -11 -15 -30 -20 -85 -23 l-71 -4 0 61 0 61 67 0 c48 0 72 -5
85 -17z"/>
<path d="M453 404 c-88 -44 -78 -187 15 -215 74 -22 145 32 145 111 0 50 -25
88 -68 106 -43 18 -52 17 -92 -2z m89 -25 c11 -6 26 -26 34 -45 35 -83 -61
-163 -124 -104 -76 71 0 197 90 149z"/>
<path d="M1115 411 c-74 -32 -96 -133 -41 -190 35 -36 84 -48 127 -31 34 14
59 50 36 50 -8 0 -20 -6 -26 -14 -18 -22 -63 -26 -93 -8 -22 13 -48 49 -48 67
0 3 45 5 100 5 109 0 114 3 86 58 -29 56 -92 84 -141 63z m97 -38 c9 -10 19
-28 22 -40 7 -23 6 -23 -78 -23 -47 0 -86 3 -86 8 0 4 9 22 20 40 17 28 25 32
63 32 29 0 49 -6 59 -17z"/>
<path d="M1400 409 c-13 -6 -33 -17 -42 -26 -17 -15 -18 -15 -18 5 0 13 -6 22
-15 22 -12 0 -15 -19 -15 -110 0 -91 3 -110 15 -110 12 0 15 14 15 69 0 60 3
74 26 100 28 34 73 42 94 16 7 -8 15 -53 18 -100 3 -62 8 -85 18 -85 25 0 13
185 -13 211 -15 14 -57 18 -83 8z"/>
<path d="M2022 403 c-40 -19 -62 -59 -62 -111 0 -75 72 -126 146 -102 92 31
99 171 10 214 -42 20 -52 20 -94 -1z m103 -38 c18 -17 25 -35 25 -63 0 -80
-82 -121 -135 -67 -54 53 -18 155 55 155 19 0 40 -9 55 -25z"/>
<path d="M2215 378 c7 -18 29 -68 48 -112 32 -72 34 -81 22 -110 -7 -17 -20
-32 -29 -34 -22 -5 -20 -32 3 -32 28 0 36 15 101 175 45 111 55 146 43 143
-10 -2 -29 -38 -51 -95 -20 -51 -38 -91 -40 -88 -3 3 -22 45 -42 93 -22 53
-43 88 -53 90 -15 3 -15 0 -2 -30z"/>
</g>
</svg>
